# xmcd CD database file
#
# Track frame offsets:
#	150
#	19835
#	43055
#	70435
#	85535
#	102115
#	124450
#	145184
#	170072
#	184452
#	202735
#	221428
#	243471
#	265180
#	292548
#
# Disc length: 4188 seconds
#
# Revision: 0
# Processed by: cddbd v1.5.1PL0 Copyright (c) Steve Scherf et al.
# Submitted via: CDex 1.51
#
DISCID=d9105a0f
DTITLE=Chris Botti - When I Fall In Love
DYEAR=2004
DGENRE=Jazz
TTITLE0=When I Fall In Love
TTITLE1=What'll I Do?
TTITLE2=No Ordinary Love
TTITLE3=My Romance
TTITLE4=Let's Fall In Love
TTITLE5=Cinema Paradiso
TTITLE6=Someone To Watch Over Me
TTITLE7=La Belle Dame Sans Regrets
TTITLE8=Nearness Of You
TTITLE9=How Love Should Be
TTITLE10=Make Someone Happy
TTITLE11=One For Mt Baby
TTITLE12=Time To Say Goodbye
TTITLE13=You Don't Know What Love Is
TTITLE14=Pavanne
EXTD=YEAR: 2004
EXTT0=
EXTT1=
EXTT2=
EXTT3=
EXTT4=
EXTT5=
EXTT6=
EXTT7=
EXTT8=
EXTT9=
EXTT10=
EXTT11=
EXTT12=
EXTT13=
EXTT14=
PLAYORDER=
